<?xml version="1.0" encoding="UTF-8"?>
<svg version="1.1" xmlns="http://www.w3.org/2000/svg" width="718" height="641">
<path d="M0 0 C236.94 0 473.88 0 718 0 C718 211.53 718 423.06 718 641 C481.06 641 244.12 641 0 641 C0 429.47 0 217.94 0 0 Z " fill="#040404" transform="translate(0,0)"/>
<path d="M0 0 C1.49503624 -0.00525911 1.49503624 -0.00525911 3.02027524 -0.01062447 C6.37477929 -0.01996095 9.7291106 -0.01500929 13.08362198 -0.01015663 C15.50705744 -0.01389175 17.9304917 -0.01849272 20.35392404 -0.02388728 C25.63063962 -0.0335864 30.90730466 -0.03702995 36.18402481 -0.03497505 C44.03084186 -0.03192674 51.87761825 -0.04024528 59.7244274 -0.0507243 C74.55422112 -0.07007519 89.38400103 -0.07569293 104.21380588 -0.07683842 C115.66571648 -0.07775721 127.11762165 -0.08187235 138.56953049 -0.08823967 C141.86496615 -0.09003474 145.16040182 -0.09181436 148.45583749 -0.09358943 C149.27507488 -0.09403152 150.09431228 -0.09447362 150.93837505 -0.09492911 C173.98502906 -0.10723914 197.03168118 -0.11513008 220.07833862 -0.11424255 C220.94741218 -0.1142114 221.81648573 -0.11418024 222.71189484 -0.11414814 C227.11680123 -0.11398192 231.52170763 -0.11378384 235.92661402 -0.11357872 C237.23887778 -0.11351889 237.23887778 -0.11351889 238.57765193 -0.11345784 C240.34679721 -0.11337697 242.11594249 -0.11329337 243.88508778 -0.11320706 C271.41045445 -0.11198153 298.93577185 -0.12699434 326.46112442 -0.15435219 C357.38021888 -0.1850704 388.29928097 -0.20228484 419.21839166 -0.20042574 C422.51508474 -0.20027648 425.81177783 -0.20017907 429.10847092 -0.20011711 C429.92021017 -0.2000938 430.73194942 -0.20007049 431.56828683 -0.20004648 C444.63387545 -0.19998492 457.69942131 -0.21275916 470.76499722 -0.22998164 C483.89552901 -0.2469318 497.02599821 -0.24891681 510.15653488 -0.235763 C517.95744178 -0.22836967 525.7581586 -0.23204313 533.55904538 -0.25164768 C539.38358054 -0.26504876 545.20796681 -0.25754718 551.03250054 -0.24190123 C553.38914693 -0.23881931 555.74581383 -0.24250833 558.10243604 -0.25362138 C561.30526169 -0.26772553 564.50710755 -0.25716849 567.7098999 -0.24050903 C568.6252698 -0.25044539 569.5406397 -0.26038175 570.48374808 -0.27061921 C577.52808399 -0.1931316 584.5008111 1.22361389 590.02358878 5.87004576 C597.64038123 13.75823822 597.53758383 23.81866957 597.46739578 34.17134666 C597.46870572 35.57329846 597.47133559 36.97524954 597.47516328 38.37719673 C597.48184334 42.21068971 597.46991003 46.0439293 597.4548291 49.87739003 C597.441837 54.01837447 597.44626043 58.15934537 597.44853592 62.30034447 C597.45010665 69.46861768 597.44071839 76.63680878 597.4238224 83.80506134 C597.3994098 94.16905439 597.39162482 104.53300785 597.38785843 114.89702653 C597.38129749 131.71317473 597.36134603 148.5292792 597.33295059 165.34540367 C597.30540077 181.67775822 597.2841717 198.01010088 597.27142715 214.34247398 C597.27063898 215.34971398 597.26985081 216.35695397 597.26903876 217.39471639 C597.26512356 222.44789669 597.26133246 227.50107707 597.25760305 232.55425751 C597.22651828 274.45530016 597.17122119 316.35626188 597.10663223 358.25726891 C572.68663223 358.25726891 548.26663223 358.25726891 523.10663223 358.25726891 C524.59163223 352.81226891 524.59163223 352.81226891 526.10663223 347.25726891 C527.03966498 338.39345782 527.11199428 328.37761145 521.3903389 321.06320763 C514.83953274 313.93968478 508.05382913 307.0755795 501.19647598 300.24945641 C499.97600531 299.03085572 498.75575886 297.81203043 497.53572464 296.59299278 C494.3569521 293.4179997 491.17518607 290.24602374 487.99274063 287.07471275 C484.73263145 283.82491714 481.47542652 280.57221338 478.21796036 277.31976891 C471.8503223 270.96278733 465.47951117 264.6089962 459.10663223 258.25726891 C460.26093704 254.71297859 461.38158284 251.47430754 463.27850723 248.26117516 C463.89967422 247.18851402 463.89967422 247.18851402 464.53339005 246.09418297 C464.97005997 245.34362633 465.40672989 244.59306969 465.85663223 243.81976891 C472.3868616 232.26196511 476.86301241 220.66300613 480.41913223 207.88226891 C480.67404434 206.96671227 480.92895645 206.05115562 481.19159317 205.10785484 C484.08100062 194.26370766 484.34734558 183.68383409 484.35663223 172.50726891 C484.35730698 171.7769445 484.35798172 171.0466201 484.35867691 170.29416466 C484.3012031 131.00947312 471.28592614 96.03043661 443.79413223 67.56976891 C421.28518971 45.76724113 393.1000976 31.99187584 362.10663223 27.25726891 C360.40120255 26.980765 360.40120255 26.980765 358.66131973 26.69867516 C352.68738977 25.98063066 346.66346154 26.07126956 340.65521622 26.07196617 C338.57305208 26.06979901 336.4914361 26.05164796 334.40936661 26.03265953 C325.13744944 25.99346743 316.2768897 26.77341507 307.10663223 28.25726891 C306.27945694 28.38738365 305.45228165 28.5174984 304.60004044 28.65155602 C277.49840632 33.24383797 253.23072155 46.91608665 233.10663223 65.25726891 C232.59503555 65.71826988 232.08343887 66.17927086 231.55633926 66.65424156 C223.43368881 74.06071795 217.16748412 82.25139291 211.24188614 91.49017906 C210.30388978 92.95022587 209.3395162 94.39329018 208.36835098 95.83148766 C189.0750243 125.62953668 184.54692397 165.66557531 191.66131973 199.92865562 C194.65491583 213.43910591 198.91699264 225.89100684 205.10663223 238.25726891 C205.59905411 239.26789391 206.09147598 240.27851891 206.59881973 241.31976891 C212.21562101 252.23603805 219.71655398 262.10991467 228.06756973 271.06586266 C229.94207939 273.08042189 231.72000883 275.14418862 233.48163223 277.25726891 C235.94954326 280.34097722 235.94954326 280.34097722 239.10663223 282.25726891 C239.10663223 282.91726891 239.10663223 283.57726891 239.10663223 284.25726891 C239.94194473 284.62851891 239.94194473 284.62851891 240.79413223 285.00726891 C243.10663223 286.25726891 243.10663223 286.25726891 245.66913223 288.31976891 C248.02689242 290.42111239 248.02689242 290.42111239 251.10663223 291.25726891 C251.99028458 292.15832359 251.99028458 292.15832359 252.89178848 293.07758141 C260.73017801 300.79155205 276.33100696 308.53712322 287.10663223 310.25726891 C287.10663223 310.91726891 287.10663223 311.57726891 287.10663223 312.25726891 C289.15741348 312.42002932 291.20819473 312.58278974 293.25897598 312.74555016 C295.78847969 313.20009746 297.94751529 313.85114106 300.36444473 314.69476891 C322.10036144 322.15240208 347.93210271 321.10051696 370.10663223 316.25726891 C370.777267 316.11273277 371.44790176 315.96819664 372.1388588 315.81928062 C383.00345073 313.39448415 393.12243025 309.44221283 402.95428848 304.24555016 C403.58649307 303.91466393 404.21869766 303.58377769 404.87005997 303.24286461 C406.63798955 302.30684734 408.39229717 301.34523324 410.14569473 300.38226891 C413.10663223 299.25726891 413.10663223 299.25726891 415.08685684 299.99432945 C417.14463405 301.28103095 418.68691785 302.60894126 420.38397598 304.33930016 C420.98016739 304.94193687 421.5763588 305.54457359 422.19061661 306.16547203 C422.80227676 306.79389 423.41393692 307.42230797 424.04413223 308.06976891 C424.6519252 308.68658531 425.25971817 309.30340172 425.88592911 309.93890953 C427.03207924 311.10236937 428.17614733 312.26788709 429.31732559 313.43622398 C433.32036323 317.51026652 437.38705826 321.45582575 441.63006973 325.28070641 C448.21547881 331.26757027 454.48066551 337.5499447 460.73163223 343.88226891 C462.84592939 346.02317694 464.96356998 348.16069953 467.08319473 350.29633141 C468.46112198 351.691661 468.46112198 351.691661 469.86688614 353.11517906 C471.91396077 355.28385467 471.91396077 355.28385467 474.10663223 356.25726891 C474.10663223 356.91726891 474.10663223 357.57726891 474.10663223 358.25726891 C308.11663223 358.25726891 142.12663223 358.25726891 -28.89336777 358.25726891 C-28.95524277 302.67289391 -29.01711777 247.08851891 -29.08086777 189.81976891 C-29.10817978 172.25572838 -29.13549179 154.69168785 -29.16363144 136.59540367 C-29.17718124 115.18097496 -29.17718124 115.18097496 -29.17969894 105.16240501 C-29.18249881 98.15110324 -29.19351289 91.13987301 -29.21009445 84.12859154 C-29.22918872 76.04289776 -29.23787599 67.95727271 -29.23370262 59.87155622 C-29.23189511 55.73523915 -29.2347639 51.5990757 -29.25101316 47.46278679 C-29.26562589 43.7203217 -29.26632908 39.97811869 -29.25607109 36.23564148 C-29.25420143 34.24595733 -29.26711787 32.25627613 -29.28061008 30.26663685 C-29.23559599 21.25511262 -28.55768698 12.92158812 -21.89336777 6.25726891 C-14.77831321 0.84364043 -8.65509763 -0.03847371 0 0 Z " fill="#FAF9F6" transform="translate(75.89336776733398,60.74273109436035)"/>
<path d="M0 0 C236.94 0 473.88 0 718 0 C718 211.53 718 423.06 718 641 C481.06 641 244.12 641 0 641 C0 429.47 0 217.94 0 0 Z M36.625 57.3125 C30.78630334 64.65741116 27.87840543 73.27517686 27.86857224 82.53382874 C27.8665196 83.19162632 27.86446697 83.8494239 27.86235213 84.52715474 C27.85667831 86.74085951 27.85813986 88.95450213 27.85955811 91.16821289 C27.85697467 92.76766087 27.85396157 94.3671082 27.8505547 95.96655464 C27.84247858 100.36956533 27.84069479 104.77255971 27.83995724 109.17557693 C27.83810769 113.92152453 27.83056075 118.66746366 27.82382202 123.41340637 C27.81023276 133.79587436 27.80421276 144.1783385 27.79981136 154.5608139 C27.79704935 161.04422589 27.79281202 167.52763638 27.78830719 174.01104736 C27.77611264 191.96225898 27.76581441 209.91346939 27.7624321 227.86468506 C27.76221253 229.01392661 27.76199297 230.16316815 27.76176675 231.3472352 C27.76154847 232.49923206 27.76133019 233.65122891 27.7611053 234.83813477 C27.76066183 237.17252604 27.76021527 239.50691732 27.75976562 241.84130859 C27.7595442 242.99924801 27.75932277 244.15718742 27.75909463 245.35021591 C27.75514834 264.10449931 27.73770032 282.85874381 27.7144061 301.61301219 C27.69068238 320.86860963 27.67822974 340.12418756 27.67706418 359.37979984 C27.67614788 370.19065022 27.67040697 381.00144996 27.65224457 391.81228638 C27.63682966 401.02023788 27.63173125 410.22812309 27.63998267 419.43608505 C27.64388454 424.13221736 27.64298228 428.82821623 27.62892532 433.52433205 C27.6161584 437.82896193 27.61740836 442.13335848 27.62951604 446.43798816 C27.63146823 447.98989103 27.62841679 449.54181058 27.61967167 451.09369004 C27.5343645 467.2643197 30.24785309 480.21569577 41.2890625 492.4140625 C43.34016873 494.31531622 45.35682743 495.14485593 48 496 C48.33 496.99 48.66 497.98 49 499 C50.73068855 499.94897593 50.73068855 499.94897593 52.8125 500.5625 C55.03975302 501.31810449 57.04286772 502.02269467 59.125 503.125 C64.27783144 505.52965467 70.20556411 505.14032865 75.76986694 505.12025452 C77.07612642 505.12153615 77.07612642 505.12153615 78.40877497 505.12284368 C81.31990101 505.1244877 84.23096913 505.11899477 87.14208984 505.11352539 C89.23161823 505.11324326 91.32114672 505.11340176 93.41067505 505.1139679 C99.07956913 505.11425486 104.74844206 505.10837436 110.41733122 505.10139394 C116.34304923 505.09514367 122.26876773 505.09455527 128.19448853 505.09336853 C139.41407183 505.09026016 150.63364539 505.08205341 161.8532244 505.07201904 C174.6270007 505.06084259 187.40077747 505.05534359 200.17455745 505.05032361 C226.44971037 505.0398704 252.72485464 505.02228049 279 505 C278.34675358 509.14084572 277.68937272 513.28101025 277.02856445 517.4206543 C276.80549158 518.82152637 276.58344424 520.22256222 276.36254883 521.6237793 C274.80938576 531.46991328 273.02819571 541.23980394 271 551 C269.85934082 551.02505615 268.71868164 551.0501123 267.54345703 551.07592773 C263.32035659 551.16994293 259.09742291 551.27017787 254.87451172 551.37231445 C253.04512425 551.41568565 251.21569573 551.45735911 249.38623047 551.49731445 C246.75996514 551.55496418 244.1339069 551.61867365 241.5078125 551.68359375 C240.27649094 551.70866249 240.27649094 551.70866249 239.02029419 551.73423767 C234.8766304 551.7431387 234.8766304 551.7431387 231 553 C231 553.66 231 554.32 231 555 C230.34 555.185625 229.68 555.37125 229 555.5625 C221.81085262 559.00729979 216.43732153 564.84506033 213 572 C211.63119374 576.606902 211.77739149 581.1679564 211.75 585.9375 C211.729375 586.83146484 211.70875 587.72542969 211.6875 588.64648438 C211.65801661 593.61075005 211.72313579 597.01789762 215 601 C215.63138948 601.85680264 216.26277897 602.71360529 216.91330147 603.59637165 C221.49625161 607.16513898 225.52416955 606.69703088 231.18405151 606.64164734 C232.89814325 606.65440562 232.89814325 606.65440562 234.6468631 606.66742164 C238.48477638 606.68974753 242.32172521 606.67623665 246.15966797 606.6628418 C248.90765704 606.66850729 251.6555999 606.6816024 254.40356445 606.69425964 C261.09829331 606.72035771 267.79275373 606.71925556 274.48751412 606.70822146 C279.92929449 606.69966451 285.37099717 606.70049264 290.81277847 606.70801735 C291.58718111 606.70907224 292.36158375 606.71012713 293.15945313 606.71121398 C294.73264536 606.71338491 296.30583758 606.71557168 297.87902977 606.71777413 C312.63438781 606.73720849 327.38959526 606.7252024 342.14494099 606.70298818 C354.8026266 606.68474269 367.46002045 606.6956325 380.11767578 606.72729492 C394.81699749 606.76406239 409.51613697 606.78107715 424.21550477 606.76788265 C425.78353315 606.76654155 427.35156156 606.76523257 428.91959 606.76395607 C430.07682642 606.76301007 430.07682642 606.76301007 431.25744136 606.76204496 C436.69096893 606.75901831 442.124359 606.77027551 447.55785751 606.78720665 C454.18224865 606.8075376 460.80622821 606.80665355 467.43059789 606.77857425 C470.81005884 606.76480513 474.18821004 606.76385024 477.56773758 606.78252411 C481.23317887 606.80113747 484.89663953 606.78285638 488.5619812 606.75517273 C489.62764624 606.76923918 490.69331127 606.78330563 491.79126918 606.79779834 C497.90685267 606.70459668 501.32370717 605.8639753 505.73277581 601.51330692 C509.55476485 596.94912444 509.38674081 591.93959694 509.375 586.25 C509.37338867 585.44594727 509.37177734 584.64189453 509.37011719 583.81347656 C509.2450557 577.76883806 508.31807004 573.14358262 505 568 C504.401875 566.9275 503.80375 565.855 503.1875 564.75 C500.91410896 561.89202269 498.71985313 560.14360192 495.68359375 558.17578125 C494 557 494 557 492.72265625 555.48046875 C488.07248655 551.48406441 481.46455689 551.72254881 475.66015625 551.8046875 C474.89319931 551.8075174 474.12624237 551.81034729 473.33604431 551.81326294 C470.91136379 551.82436525 468.48706691 551.84945033 466.0625 551.875 C464.4082085 551.8850427 462.75391115 551.89416628 461.09960938 551.90234375 C457.06626077 551.92427183 453.0331952 551.95873157 449 552 C448.96334229 551.4227417 448.92668457 550.8454834 448.88891602 550.25073242 C448.16937409 540.84154321 446.52660586 531.6044187 444.9375 522.3125 C444.65261455 520.62831948 444.36810642 518.9440751 444.08398438 517.25976562 C443.39366833 513.17242814 442.69826055 509.08598746 442 505 C443.07729779 505.00276538 444.15459558 505.00553076 445.26453876 505.00837994 C471.49734639 505.07502698 497.73014301 505.12430027 523.96301746 505.15543652 C536.64912236 505.17089461 549.33517127 505.191964 562.02124023 505.22631836 C573.08051822 505.25625299 584.13975564 505.27558269 595.19907302 505.28226548 C601.05297631 505.28617083 606.9067636 505.29532708 612.76062965 505.31719017 C618.27549977 505.33761944 623.79020657 505.34382076 629.30511093 505.33932304 C631.32425894 505.34014536 633.34341267 505.34607244 635.36252785 505.35761642 C647.55554463 505.42388269 657.59386268 504.62863513 669 500 C669 499.34 669 498.68 669 498 C669.763125 497.71125 670.52625 497.4225 671.3125 497.125 C674.15029308 496.03730987 674.15029308 496.03730987 677 494 C677 493.34 677 492.68 677 492 C677.5878125 491.76023437 678.175625 491.52046875 678.78125 491.2734375 C681.46317871 489.73416151 682.70903529 488.14049134 684.5 485.625 C685.0671875 484.85414063 685.634375 484.08328125 686.21875 483.2890625 C691.76801197 473.04239895 692.5791861 463.13297085 692.50793457 451.71116638 C692.51255127 450.08759712 692.51890933 448.46403205 692.52684355 446.84047562 C692.54345428 442.40789072 692.53532837 437.97565281 692.52289867 433.5430671 C692.51381658 428.75158856 692.52783349 423.96016804 692.53881836 419.16870117 C692.55657411 409.79389284 692.55277684 400.41921285 692.5411678 391.04439955 C692.53212269 383.4236784 692.53091413 375.80299313 692.53526306 368.18226814 C692.53618246 366.55339544 692.53618246 366.55339544 692.53712043 364.89161621 C692.53839937 362.68539666 692.53969623 360.47917711 692.5410108 358.27295757 C692.55240783 337.60161642 692.53931636 316.93034632 692.51780933 296.25901682 C692.49993663 278.53209871 692.5030456 260.80528537 692.52148438 243.07836914 C692.5429022 222.47785549 692.55131193 201.87740403 692.53903532 181.2768808 C692.53776116 179.07922591 692.53650368 176.881571 692.53526306 174.68391609 C692.53464596 173.60270844 692.53402886 172.52150079 692.53339306 171.40752928 C692.52994309 163.79775268 692.53576084 156.18801563 692.54518127 148.57824516 C692.55641264 139.30198945 692.55333712 130.02586909 692.5320583 120.74962883 C692.52156365 116.0191095 692.51739906 111.28881565 692.53065491 106.55829811 C692.54261732 102.22373654 692.53595315 97.88960842 692.5147447 93.5550859 C692.51029493 91.99133355 692.51250819 90.42754419 692.52224785 88.86381584 C692.60416207 74.61364823 689.86209895 64.37790266 680.03515625 53.90625 C670.33118713 44.50059458 659.23470204 41.84502381 646.15717983 41.86577892 C644.65211034 41.86225058 644.65211034 41.86225058 643.11663541 41.85865095 C639.73338072 41.85196084 636.35016444 41.85241918 632.96690369 41.85282898 C630.52513351 41.84953037 628.08336388 41.84580481 625.64159495 41.8416875 C619.62101342 41.83271182 613.60044432 41.82843982 607.57985785 41.82616853 C600.36933546 41.82320591 593.15882282 41.81450815 585.94830555 41.80575425 C568.51982522 41.78491145 551.09134319 41.77444037 533.6628533 41.76562465 C525.4179273 41.76141796 517.17300203 41.75619601 508.92807665 41.75094012 C480.70481685 41.7330502 452.48155683 41.71805411 424.2582922 41.71061993 C422.4864749 41.71014517 420.71465761 41.70966928 418.94284031 41.70919226 C418.06417907 41.70895589 417.18551782 41.70871951 416.28023048 41.70847597 C411.82850326 41.70727478 407.37677604 41.70605933 402.92504883 41.70483398 C401.59986156 41.70447376 401.59986156 41.70447376 400.24790284 41.70410626 C371.60360262 41.6962132 342.9593438 41.67278109 314.31506166 41.64027804 C284.03079051 41.60597682 253.74654358 41.58626853 223.46225268 41.58297569 C220.13742323 41.58255815 216.81259379 41.58207858 213.48776436 41.58155251 C212.25976437 41.58136772 212.25976437 41.58136772 211.00695631 41.5811792 C197.83477364 41.57884757 184.66263909 41.56318973 171.49047357 41.54271066 C158.24888879 41.52245036 145.00736176 41.51697633 131.76576435 41.52648129 C123.90084806 41.53169541 116.03612413 41.52582304 108.17123554 41.50394662 C102.2954642 41.48883936 96.41983408 41.49468528 90.54405577 41.50861714 C88.16917239 41.51100094 85.79427052 41.50662987 83.41941547 41.49478849 C64.62881077 41.40690558 50.26659286 42.83570758 36.625 57.3125 Z " fill="#FAF9F6" transform="translate(0,0)"/>
<path d="M0 0 C1.20140625 0.26683594 2.4028125 0.53367187 3.640625 0.80859375 C19.74400882 4.66312711 34.57047183 11.34377476 48 21 C48.85464844 21.61230469 49.70929688 22.22460938 50.58984375 22.85546875 C61.46841527 31.12459362 71.92050254 41.26524987 79 53 C79.65355469 54.06734375 80.30710937 55.1346875 80.98046875 56.234375 C99.10106802 86.4992687 104.84388615 121.34923134 96.33203125 155.6953125 C90.00764276 178.65050034 77.40962271 198.87331815 61 216 C60.18144531 216.89332031 59.36289062 217.78664063 58.51953125 218.70703125 C47.00097153 230.87212756 33.28943502 238.47255655 18 245 C17.05898438 245.40992188 16.11796875 245.81984375 15.1484375 246.2421875 C12.45904617 247.31627877 9.77930768 248.18512445 7 249 C5.76765625 249.37125 4.5353125 249.7425 3.265625 250.125 C-7.48516956 253.01255395 -18.12414918 253.35194586 -29.1875 253.3125 C-29.90995911 253.31004272 -30.63241821 253.30758545 -31.37677002 253.30505371 C-38.63615968 253.26093371 -45.8180311 253.14576157 -53 252 C-53 251.34 -53 250.68 -53 250 C-53.64582031 250.00902344 -54.29164063 250.01804687 -54.95703125 250.02734375 C-65.38597636 249.69921005 -74.44562764 245.8538771 -84 242 C-84 241.34 -84 240.68 -84 240 C-84.68449219 239.91105469 -85.36898437 239.82210937 -86.07421875 239.73046875 C-89.68312514 238.82944673 -92.63595554 237.18222183 -95.8125 235.3125 C-96.73409912 234.77665283 -96.73409912 234.77665283 -97.67431641 234.22998047 C-107.44830022 228.4634588 -107.44830022 228.4634588 -111 225 C-111 224.34 -111 223.68 -111 223 C-111.54527344 222.77699219 -112.09054687 222.55398438 -112.65234375 222.32421875 C-134.53486551 209.98116571 -148.81917921 178.25944506 -155.375 155.375 C-163.44293923 122.17507307 -159.42392267 87.12312594 -142.0234375 57.65234375 C-126.52282025 33.72210795 -105.11281853 14.52612543 -78 5 C-76.31583984 4.38318359 -76.31583984 4.38318359 -74.59765625 3.75390625 C-51.14674189 -4.45986579 -24.11127319 -5.97607737 0 0 Z " fill="#F9F8F5" transform="translate(443,108)"/>
<path d="M0 0 C206.58 0 413.16 0 626 0 C626 32.23809524 626 32.23809524 619.375 40.125 C617 42 617 42 615 42 C615 42.66 615 43.32 615 44 C604.36363519 49.75320911 592.34435709 48.55351386 580.64279175 48.50120544 C578.23907522 48.50510007 575.83536099 48.5107418 573.43165219 48.51797634 C568.21350599 48.52964869 562.99551398 48.52894375 557.77737427 48.51719666 C550.01781347 48.49977635 542.2583858 48.5053273 534.49881801 48.51536357 C520.63913034 48.53253899 506.77952188 48.5270254 492.91983586 48.51200638 C480.79217338 48.49894906 468.66453836 48.49375971 456.53686905 48.49632454 C455.73207748 48.49648495 454.92728591 48.49664537 454.09810672 48.49681065 C450.83112901 48.49747424 447.56415131 48.49817666 444.29717362 48.49893599 C413.65941586 48.50595788 383.02170644 48.49047546 352.38396099 48.46431253 C325.16660335 48.44119357 297.94929884 48.43581115 270.73193359 48.44604492 C263.76108235 48.44864695 256.79023111 48.45123197 249.81937981 48.45364285 C248.53207007 48.45408902 248.53207007 48.45408902 247.21875407 48.4545442 C224.47136818 48.46215908 201.72398663 48.45574703 178.97660267 48.44494683 C176.52900139 48.44379903 174.0814001 48.44265585 171.63379881 48.44152 C170.01014823 48.44076475 168.38649766 48.43999911 166.76284709 48.43922299 C154.64168673 48.43356519 142.52054013 48.43489423 130.39937973 48.43945122 C116.61824797 48.44455866 102.83716766 48.4387075 89.05604874 48.41855692 C81.34381473 48.40757023 73.63168189 48.40477774 65.9194448 48.41384545 C60.16288125 48.41967818 54.40642997 48.40983806 48.6498896 48.3938458 C46.31965968 48.38979476 43.98941439 48.39081212 41.65919016 48.39736467 C38.49459523 48.40550298 35.330572 48.39521645 32.16601372 48.38031673 C30.80560132 48.39042321 30.80560132 48.39042321 29.41770583 48.40073386 C23.45641168 48.34636911 18.53458162 47.20812773 13 45 C13 44.34 13 43.68 13 43 C12.29875 42.835 11.5975 42.67 10.875 42.5 C6.70094489 40.32223212 4.29464868 37.07115088 2 33 C0 26 0 26 0 0 Z " fill="#F8F7F4" transform="translate(47,438)"/>
<path d="M0 0 C3.43755297 2.43274088 6.20676608 5.356511 9.0625 8.4375 C10.21782227 9.62182617 10.21782227 9.62182617 11.39648438 10.83007812 C17 16.66230867 17 16.66230867 17 19 C17.57999756 18.8232373 18.15999512 18.64647461 18.75756836 18.46435547 C21 18 21 18 24.87890625 18.5703125 C31.31305066 19.44161012 37.09358249 20.06517171 42.61816406 16.13964844 C46.17083958 12.87775652 49.39200303 9.44145126 52.50415039 5.75830078 C58.03948414 -0.71122297 58.03948414 -0.71122297 61.22338867 -1.66845703 C64.97895497 -1.7702478 66.89579167 -1.07538475 69.9375 1.125 C72.27965814 4.3898265 73.08034838 5.98258102 73 10 C70.28923958 16.53046828 65.34470796 21.44977565 60 26 C59.34 26 58.68 26 58 26 C58.680625 26.66 59.36125 27.32 60.0625 28 C61.04381064 28.99789618 62.02274636 29.9981304 63 31 C63.54269531 31.53496094 64.08539063 32.06992188 64.64453125 32.62109375 C74.77341943 43.25299669 78.84694709 56.43583904 80.41015625 70.7578125 C80.70755161 74.20138109 80.70755161 74.20138109 83.5625 76.4375 C84.7690625 77.2109375 84.7690625 77.2109375 86 78 C89.02496581 76.64937713 91.0805694 75.14970763 93.3828125 72.77734375 C93.99253906 72.15666016 94.60226562 71.53597656 95.23046875 70.89648438 C95.85566406 70.25001953 96.48085938 69.60355469 97.125 68.9375 C98.37536074 67.6527607 99.62786516 66.37010319 100.8828125 65.08984375 C101.43340332 64.52128662 101.98399414 63.95272949 102.55126953 63.36694336 C105.38393448 60.69419462 108.12801371 60.59431719 111.95703125 60.6640625 C114 61 114 61 117 63 C119.01487554 66.02231331 119.85087695 68.05757527 119.7578125 71.70703125 C118.1591354 76.54426557 113.38015384 79.45602338 109.59454346 82.63787842 C99.8049161 90.98825733 99.8049161 90.98825733 95.5390625 102.7734375 C95.38949939 108.58600392 95.92456093 114.28889209 97 120 C97.57967529 119.98428955 98.15935059 119.9685791 98.7565918 119.95239258 C101.40012739 119.88977209 104.04350655 119.85092482 106.6875 119.8125 C107.59951172 119.78736328 108.51152344 119.76222656 109.45117188 119.73632812 C114.45054611 119.6817895 117.9695324 119.66836348 122 123 C124.32402951 126.20937409 124.47570691 129.11506021 124 133 C122.20006226 135.69990662 120.916227 137.5418865 118 139 C116.40552536 139.08400529 114.80759455 139.10727467 113.2109375 139.09765625 C112.26992188 139.09443359 111.32890625 139.09121094 110.359375 139.08789062 C109.37453125 139.07951172 108.3896875 139.07113281 107.375 139.0625 C106.38242187 139.05798828 105.38984375 139.05347656 104.3671875 139.04882812 C101.9113984 139.03702145 99.45572896 139.020554 97 139 C97.01667725 139.59022949 97.03335449 140.18045898 97.05053711 140.78857422 C97.12383329 145.24734949 96.81727634 148.8289861 95.5625 153.125 C95.1670867 156.40460441 95.44189571 158.23877283 97.40869141 160.92138672 C101.15445384 165.10500449 105.26079706 168.88644494 109.49365234 172.57055664 C111.87315215 174.82857469 111.99766729 175.96909155 112.25 179.3125 C111.98667452 183.19655077 111.33593632 184.94531404 109 188 C105.46669498 189.76665251 101.84352465 189.70853853 98 189 C95.21912744 187.25373924 93.20801244 185.02816111 91.0625 182.5625 C89.95079628 181.35401565 88.83758562 180.14691531 87.72265625 178.94140625 C87.24578369 178.40201416 86.76891113 177.86262207 86.27758789 177.30688477 C85.01192567 175.86972918 85.01192567 175.86972918 83 175 C83 175.66 83 176.32 83 177 C81.1015625 178.7265625 81.1015625 178.7265625 78.625 180.625 C77.81289063 181.25664062 77.00078125 181.88828125 76.1640625 182.5390625 C74 184 74 184 72 184 C72 184.66 72 185.32 72 186 C70.35 186.33 68.7 186.66 67 187 C67 187.66 67 188.32 67 189 C64.69 189.33 62.38 189.66 60 190 C60 190.66 60 191.32 60 192 C57.98135603 192.65264429 55.95996273 193.29678746 53.9375 193.9375 C52.24947266 194.47697266 52.24947266 194.47697266 50.52734375 195.02734375 C42.96626143 197.11229336 35.60043258 197.18285049 27.8125 197.1875 C26.75224609 197.19974609 25.69199219 197.21199219 24.59960938 197.22460938 C14.26237811 197.24350742 4.39722526 196.24348955 -5.0625 191.875 C-5.73369873 191.57368164 -6.40489746 191.27236328 -7.09643555 190.96191406 C-14.51741101 187.4982604 -21.32988546 182.94536281 -27 177 C-30.83555225 178.5626324 -33.13609725 181.06449968 -36 184 C-39.62068966 187 -39.62068966 187 -42 187 C-42 187.66 -42 188.32 -42 189 C-49.13840513 189.60494959 -49.13840513 189.60494959 -52.9375 186.9375 C-55.50863721 183.2755773 -56.30484815 181.49651023 -56 177 C-53.48138454 172.92951036 -50.073425 169.7868751 -46.234375 166.97265625 C-43.04407083 164.43734469 -41.01444143 162.56892583 -39 159 C-38.31318999 152.3114225 -39.66504489 145.54147048 -41 139 C-41.60996826 139.02618408 -42.21993652 139.05236816 -42.84838867 139.0793457 C-45.62782758 139.18365719 -48.40685439 139.24842982 -51.1875 139.3125 C-52.62706055 139.3753418 -52.62706055 139.3753418 -54.09570312 139.43945312 C-61.2212783 139.56273297 -61.2212783 139.56273297 -65.140625 136.73046875 C-67.41760825 133.38674755 -67.68033302 131.83334316 -67.4296875 127.93359375 C-66.7461763 124.85779336 -65.25636877 123.12743341 -63 121 C-60.17588235 120.05862745 -58.47081968 119.88274618 -55.55078125 119.90234375 C-54.70322266 119.90556641 -53.85566406 119.90878906 -52.98242188 119.91210938 C-51.66081055 119.92467773 -51.66081055 119.92467773 -50.3125 119.9375 C-48.97348633 119.94426758 -48.97348633 119.94426758 -47.60742188 119.95117188 C-45.40488013 119.96295017 -43.20247401 119.97939836 -41 120 C-41.02320313 119.04480469 -41.04640625 118.08960938 -41.0703125 117.10546875 C-41.1814732 109.14159831 -40.81734706 101.80485659 -39 94 C-40.32 93.67 -41.64 93.34 -43 93 C-43 92.34 -43 91.68 -43 91 C-43.89319946 90.59249512 -43.89319946 90.59249512 -44.80444336 90.17675781 C-48.29467648 88.30608911 -50.78882536 85.53927461 -53.5625 82.75 C-54.13935547 82.18925781 -54.71621094 81.62851563 -55.31054688 81.05078125 C-58.71714194 77.64811536 -61.20418814 74.55366579 -63 70 C-62.92925721 66.46286062 -62.41467073 64.61371268 -60.4375 61.6875 C-57.7963452 59.85900821 -55.53372413 58.91864467 -52.32446289 58.57397461 C-47.02145545 59.54590487 -43.48798843 64.63607482 -40 68.4375 C-38.69482422 69.80358398 -38.69482422 69.80358398 -37.36328125 71.19726562 C-35.22054168 73.44596484 -33.10153918 75.71286293 -31 78 C-28.50638429 76.79618552 -26.31856917 75.54571278 -24 74 C-23.4123643 71.34673577 -22.98048265 68.80935719 -22.625 66.125 C-20.17471248 50.43094146 -13.60910212 37.89077621 -1 28 C-2.8619874 23.48090625 -6.12233716 21.15233016 -9.80859375 18.09765625 C-12.98909453 15.05321968 -14.79927617 12.37639201 -15.4375 8 C-14.8943967 4.27586307 -13.59513183 2.67145924 -11 0 C-7.36046428 -1.81976786 -3.79919534 -1.19035034 0 0 Z " fill="#040404" transform="translate(385,132)"/>
<path d="M0 0 C40.26 0 80.52 0 122 0 C126.64758497 24.39982111 126.64758497 24.39982111 127.75 32 C127.87503906 32.81726563 128.00007812 33.63453125 128.12890625 34.4765625 C128.71523267 38.43265503 129 41.95679424 129 46 C83.79 46 38.58 46 -8 46 C-8 38.12408184 -8 38.12408184 -7.37329102 34.84057617 C-7.23637344 34.10679245 -7.09945587 33.37300873 -6.95838928 32.61698914 C-6.80840988 31.85006241 -6.65843048 31.08313568 -6.50390625 30.29296875 C-6.35090561 29.48636307 -6.19790497 28.67975739 -6.04026794 27.84870911 C-5.71794569 26.15645321 -5.39254487 24.46478105 -5.06420898 22.77368164 C-4.56089741 20.17923906 -4.06778046 17.58301105 -3.57617188 14.98632812 C-3.26100906 13.33842826 -2.94527416 11.69063768 -2.62890625 10.04296875 C-2.48095108 9.26592087 -2.33299591 8.48887299 -2.18055725 7.6882782 C-1.11626737 2.23253474 -1.11626737 2.23253474 0 0 Z " fill="#FAF9F7" transform="translate(300,505)"/>
<path d="M0 0 C80.19 0 160.38 0 243 0 C243 0.66 243 1.32 243 2 C244.1446875 2.3403125 244.1446875 2.3403125 245.3125 2.6875 C248.71251182 4.34797089 249.55914733 5.51161986 251 9 C251 11.64 251 14.28 251 17 C165.53 17 80.06 17 -8 17 C-8 8.87502997 -7.97604356 7.96406534 -4 2 C-2.68 2 -1.36 2 0 2 C0 1.34 0 0.68 0 0 Z " fill="#EEEDEB" transform="translate(239,570)"/>
<path d="M0 0 C26.94117647 0 26.94117647 0 35 8 C38.44132259 13.05083005 41.09514466 18.02746953 41.17700195 24.22094727 C41.19625481 25.49356163 41.19625481 25.49356163 41.21589661 26.79188538 C41.22328354 27.70747726 41.23067047 28.62306915 41.23828125 29.56640625 C41.246353 30.51507065 41.25442474 31.46373505 41.26274109 32.44114685 C41.27657708 34.45268938 41.28730141 36.46425534 41.29516602 38.47583008 C41.30665202 40.52114804 41.32704981 42.56643682 41.35668945 44.61157227 C41.39965057 47.57588964 41.41557786 50.539315 41.42578125 53.50390625 C41.44328934 54.40532852 41.46079742 55.30675079 41.47883606 56.23548889 C41.44379487 66.66166098 37.63329685 74.28922243 30.48828125 81.73828125 C21.46587197 89.93918388 12.03475362 93 0 93 C0 62.31 0 31.62 0 0 Z " fill="#F8F7F4" transform="translate(422,216)"/>
<path d="M0 0 C0 31.02 0 62.04 0 94 C-12.70723553 92.72927645 -23.55408034 89.3526132 -32.3125 79.5625 C-40.86297764 68.73821113 -41.33101776 57.81395847 -41.26074219 44.43457031 C-41.25002473 42.00560541 -41.26067942 39.5773799 -41.2734375 37.1484375 C-41.29584994 15.71444787 -41.29584994 15.71444787 -33 7 C-23.31185408 -1.75488415 -13.29657031 0 0 0 Z " fill="#F7F6F4" transform="translate(404,216)"/>
<path d="M0 0 C0.66 0 1.32 0 2 0 C3.2961731 1.31741333 3.2961731 1.31741333 4.85986328 3.23095703 C9.46380873 8.63994454 14.48814557 13.60080262 19.52492905 18.60009384 C21.27565701 20.33791017 23.02311165 22.07896126 24.76980591 23.8208313 C28.46871164 27.50839741 32.17157521 31.19197315 35.875 34.875 C40.18983363 39.16621507 44.50302046 43.4590595 48.81204605 47.75610733 C50.53452269 49.47209862 52.25997833 51.18505587 53.98556519 52.8979187 C55.0346314 53.94335476 56.08355881 54.98893014 57.13232422 56.03466797 C58.05052948 56.94763641 58.96873474 57.86060486 59.9147644 58.80123901 C63.05498626 62.11242232 63.26767678 64.27020027 63.234375 68.82421875 C62.86256482 72.27585656 61.54565768 74.90868464 60 78 C59.34 78 58.68 78 58 78 C58 78.66 58 79.32 58 80 C55.5 80.9375 55.5 80.9375 52 81 C44.00906425 75.79017451 37.24865389 67.37513485 30.53125 60.62890625 C29.24252928 59.33831715 27.95358515 58.0479511 26.66442871 56.75779724 C23.29542172 53.38499816 19.92943045 50.00920538 16.56408691 46.63275146 C13.12008377 43.17846255 9.67319751 39.72705315 6.2265625 36.27539062 C-0.51842839 29.51972087 -7.26023258 22.76088066 -14 16 C-12.17326221 11.98956955 -9.76623131 9.78275747 -6.4375 6.875 C-2.71412066 3.83511822 -2.71412066 3.83511822 0 0 Z " fill="#F4F4F1" transform="translate(521,334)"/>
<path d="M0 0 C6.24965623 4.20626959 9.42441496 10.13789242 12.73046875 16.75 C12.73046875 18.73 12.73046875 20.71 12.73046875 22.75 C-7.39953125 22.75 -27.52953125 22.75 -48.26953125 22.75 C-46.99211218 13.8080665 -44.07208002 7.72304799 -37.08203125 1.875 C-24.67500198 -6.96030872 -13.15085651 -7.24315677 0 0 Z " fill="#F8F7F5" transform="translate(431.26953125,174.25)"/>
<path d="M0 0 C0.66 0.33 1.32 0.66 2 1 C-0.97 3.97 -3.94 6.94 -7 10 C-7 7 -7 7 -4.625 4.4375 C-3.75875 3.633125 -2.8925 2.82875 -2 2 C-1.34 1.34 -0.68 0.68 0 0 Z " fill="#D3D3D2" transform="translate(58,64)"/>
</svg>
